<svg width="24" height="24" viewBox="0 0 24 24" fill="none" xmlns="http://www.w3.org/2000/svg">
<path fill-rule="evenodd" clip-rule="evenodd" d="M12 3C9.5556 3 9.2496 3.0102 8.2896 3.054C7.3314 3.0978 6.6768 3.2502 6.1044 3.4728C5.5044 3.6984 4.9602 4.0524 4.5102 4.5108C4.05253 4.96028 3.69831 5.5041 3.4722 6.1044C3.2508 6.6768 3.0978 7.332 3.054 8.2902C3.0108 9.2496 3 9.555 3 12C3 14.445 3.0102 14.7504 3.054 15.7104C3.0978 16.6686 3.2502 17.3232 3.4728 17.8956C3.6984 18.4956 4.0524 19.0398 4.5108 19.4898C4.96029 19.9475 5.50411 20.3017 6.1044 20.5278C6.6768 20.7498 7.3314 20.9022 8.2896 20.946C9.2496 20.9898 9.5556 21 12 21C14.4444 21 14.7504 20.9898 15.7104 20.946C16.6686 20.9022 17.3232 20.7498 17.8956 20.5272C18.4956 20.3016 19.0398 19.9476 19.4898 19.4892C19.9475 19.0397 20.3017 18.4959 20.5278 17.8956C20.7498 17.3232 20.9022 16.6686 20.946 15.7104C20.9898 14.7504 21 14.4444 21 12C21 9.5556 20.9898 9.2496 20.946 8.2896C20.9022 7.3314 20.7498 6.6768 20.5272 6.1044C20.3012 5.50384 19.947 4.95979 19.4892 4.5102C19.0397 4.05253 18.4959 3.69831 17.8956 3.4722C17.3232 3.2508 16.668 3.0978 15.7098 3.054C14.7504 3.0108 14.445 3 12 3ZM12 4.6218C14.403 4.6218 14.688 4.6308 15.6372 4.674C16.5144 4.7142 16.9908 4.86 17.3082 4.9842C17.7282 5.1468 18.0282 5.3424 18.3432 5.6568C18.6582 5.9718 18.8532 6.2718 19.0158 6.6918C19.1394 7.0092 19.2858 7.4856 19.326 8.3628C19.3692 9.312 19.3782 9.597 19.3782 12C19.3782 14.403 19.3692 14.688 19.326 15.6372C19.2858 16.5144 19.14 16.9908 19.0158 17.3082C18.8718 17.6991 18.6419 18.0528 18.3432 18.3432C18.0528 18.642 17.6992 18.8718 17.3082 19.0158C16.9908 19.1394 16.5144 19.2858 15.6372 19.326C14.688 19.3692 14.4036 19.3782 12 19.3782C9.5964 19.3782 9.312 19.3692 8.3628 19.326C7.4856 19.2858 7.0092 19.14 6.6918 19.0158C6.30087 18.8718 5.9472 18.6419 5.6568 18.3432C5.35811 18.0528 5.12828 17.6991 4.9842 17.3082C4.8606 16.9908 4.7142 16.5144 4.674 15.6372C4.6308 14.688 4.6218 14.403 4.6218 12C4.6218 9.597 4.6308 9.312 4.674 8.3628C4.7142 7.4856 4.86 7.0092 4.9842 6.6918C5.1468 6.2718 5.3424 5.9718 5.6568 5.6568C5.94716 5.35803 6.30085 5.12819 6.6918 4.9842C7.0092 4.8606 7.4856 4.7142 8.3628 4.674C9.312 4.6308 9.597 4.6218 12 4.6218V4.6218Z" fill="white"/>
<path fill-rule="evenodd" clip-rule="evenodd" d="M12.001 15.0038C11.6066 15.0038 11.2161 14.9261 10.8518 14.7752C10.4875 14.6243 10.1564 14.4031 9.87756 14.1242C9.5987 13.8454 9.3775 13.5143 9.22659 13.15C9.07567 12.7856 8.998 12.3951 8.998 12.0008C8.998 11.6064 9.07567 11.2159 9.22659 10.8516C9.3775 10.4872 9.5987 10.1562 9.87756 9.87732C10.1564 9.59847 10.4875 9.37727 10.8518 9.22636C11.2161 9.07544 11.6066 8.99777 12.001 8.99777C12.7974 8.99777 13.5613 9.31415 14.1244 9.87732C14.6876 10.4405 15.004 11.2043 15.004 12.0008C15.004 12.7972 14.6876 13.561 14.1244 14.1242C13.5613 14.6874 12.7974 15.0038 12.001 15.0038V15.0038ZM12.001 7.37477C10.7741 7.37477 9.59747 7.86215 8.72992 8.72969C7.86238 9.59723 7.375 10.7739 7.375 12.0008C7.375 13.2277 7.86238 14.4043 8.72992 15.2718C9.59747 16.1394 10.7741 16.6268 12.001 16.6268C13.2279 16.6268 14.4045 16.1394 15.2721 15.2718C16.1396 14.4043 16.627 13.2277 16.627 12.0008C16.627 10.7739 16.1396 9.59723 15.2721 8.72969C14.4045 7.86215 13.2279 7.37477 12.001 7.37477V7.37477ZM17.9728 7.29077C17.9728 7.58078 17.8576 7.85892 17.6525 8.06399C17.4474 8.26906 17.1693 8.38427 16.8793 8.38427C16.5893 8.38427 16.3111 8.26906 16.1061 8.06399C15.901 7.85892 15.7858 7.58078 15.7858 7.29077C15.7858 7.00075 15.901 6.72262 16.1061 6.51754C16.3111 6.31247 16.5893 6.19727 16.8793 6.19727C17.1693 6.19727 17.4474 6.31247 17.6525 6.51754C17.8576 6.72262 17.9728 7.00075 17.9728 7.29077" fill="white"/>
</svg>
